<?xml version="1.0" encoding="UTF-8" standalone="no"?>
<svg
   xmlns:dc="http://purl.org/dc/elements/1.1/"
   xmlns:cc="http://creativecommons.org/ns#"
   xmlns:rdf="http://www.w3.org/1999/02/22-rdf-syntax-ns#"
   xmlns:svg="http://www.w3.org/2000/svg"
   xmlns="http://www.w3.org/2000/svg"
   xmlns:sodipodi="http://sodipodi.sourceforge.net/DTD/sodipodi-0.dtd"
   xmlns:inkscape="http://www.inkscape.org/namespaces/inkscape"
   viewBox="0 0 709.94463 122.65308"
   version="1.1"
   id="svg22"
   sodipodi:docname="mastercard-logo.svg"
   width="709.94464"
   height="122.65308"
   inkscape:version="0.92.2 (5c3e80d, 2017-08-06)">
  <metadata
     id="metadata26">
    <rdf:RDF>
      <cc:Work
         rdf:about="">
        <dc:format>image/svg+xml</dc:format>
        <dc:type
           rdf:resource="http://purl.org/dc/dcmitype/StillImage" />
        <dc:title>mc_vrt_rgb_pos</dc:title>
      </cc:Work>
    </rdf:RDF>
  </metadata>
  <sodipodi:namedview
     pagecolor="#ffffff"
     bordercolor="#666666"
     borderopacity="1"
     objecttolerance="10"
     gridtolerance="10"
     guidetolerance="10"
     inkscape:pageopacity="0"
     inkscape:pageshadow="2"
     inkscape:window-width="1600"
     inkscape:window-height="837"
     id="namedview24"
     showgrid="false"
     fit-margin-top="0"
     fit-margin-left="0"
     fit-margin-right="0"
     fit-margin-bottom="0"
     inkscape:zoom="0.34647703"
     inkscape:cx="-298.90726"
     inkscape:cy="540.64863"
     inkscape:window-x="-8"
     inkscape:window-y="-8"
     inkscape:window-maximized="1"
     inkscape:current-layer="svg22" />
  <defs
     id="defs4">
    <style
       id="style2">.cls-1{fill:none;}.cls-2{fill:#231f20;}.cls-3{fill:#ff5f00;}.cls-4{fill:#eb001b;}.cls-5{fill:#f79e1b;}</style>
  </defs>
  <title
     id="title6">mc_vrt_rgb_pos</title>
  <g
     id="Layer_2"
     data-name="Layer 2"
     transform="translate(0,2.2430808)">
    <g
       id="Layer_1-2"
       data-name="Layer 1">
      <rect
         class="cls-1"
         width="146.8"
         height="120.41"
         id="rect8"
         x="0"
         y="0"
         style="fill:none" />
      <path
         class="cls-2"
         d="m 36.35,105.26 v -6 a 3.56,3.56 0 0 0 -3.76,-3.8 3.7,3.7 0 0 0 -3.36,1.7 3.51,3.51 0 0 0 -3.16,-1.7 3.16,3.16 0 0 0 -2.8,1.42 V 95.7 h -2.08 v 9.56 h 2.1 V 100 a 2.24,2.24 0 0 1 2.34,-2.54 c 1.38,0 2.08,0.9 2.08,2.52 v 5.32 h 2.1 V 100 a 2.25,2.25 0 0 1 2.34,-2.54 c 1.42,0 2.1,0.9 2.1,2.52 v 5.32 z M 67.42,95.7 H 64 v -2.9 h -2.1 v 2.9 H 60 v 1.9 h 1.94 v 4.4 c 0,2.22 0.86,3.54 3.32,3.54 a 4.88,4.88 0 0 0 2.6,-0.74 l -0.6,-1.78 a 3.84,3.84 0 0 1 -1.84,0.54 c -1,0 -1.38,-0.64 -1.38,-1.6 V 97.6 h 3.4 z m 17.74,-0.24 a 2.82,2.82 0 0 0 -2.52,1.4 V 95.7 h -2.06 v 9.56 h 2.08 V 99.9 c 0,-1.58 0.68,-2.46 2,-2.46 a 3.39,3.39 0 0 1 1.3,0.24 l 0.64,-2 a 4.45,4.45 0 0 0 -1.48,-0.26 z m -26.82,1 a 7.15,7.15 0 0 0 -3.9,-1 c -2.42,0 -4,1.16 -4,3.06 0,1.56 1.16,2.52 3.3,2.82 l 1,0.14 c 1.14,0.16 1.68,0.46 1.68,1 0,0.74 -0.76,1.16 -2.18,1.16 a 5.09,5.09 0 0 1 -3.18,-1 l -1,1.62 a 6.9,6.9 0 0 0 4.14,1.24 c 2.76,0 4.36,-1.3 4.36,-3.12 0,-1.82 -1.26,-2.56 -3.34,-2.86 l -1,-0.14 c -0.9,-0.12 -1.62,-0.3 -1.62,-0.94 0,-0.64 0.68,-1.12 1.82,-1.12 a 6.16,6.16 0 0 1 3,0.82 z m 55.71,-1 a 2.82,2.82 0 0 0 -2.52,1.4 V 95.7 h -2.06 v 9.56 h 2.08 V 99.9 c 0,-1.58 0.68,-2.46 2,-2.46 a 3.39,3.39 0 0 1 1.3,0.24 l 0.64,-2 a 4.45,4.45 0 0 0 -1.48,-0.26 z m -26.8,5 a 4.83,4.83 0 0 0 5.1,5 5,5 0 0 0 3.44,-1.14 l -1,-1.68 a 4.2,4.2 0 0 1 -2.5,0.86 3.07,3.07 0 0 1 0,-6.12 4.2,4.2 0 0 1 2.5,0.86 l 1,-1.68 a 5,5 0 0 0 -3.44,-1.14 4.83,4.83 0 0 0 -5.1,5 z m 19.48,0 V 95.7 h -2.08 v 1.16 a 3.63,3.63 0 0 0 -3,-1.4 5,5 0 0 0 0,10 3.63,3.63 0 0 0 3,-1.4 v 1.16 h 2.08 z m -7.74,0 a 2.89,2.89 0 1 1 2.9,3.06 2.87,2.87 0 0 1 -2.9,-3.06 z m -25.1,-5 a 5.00049,5.00049 0 0 0 0.14,10 5.81,5.81 0 0 0 3.97,-1.3 l -1,-1.54 a 4.55,4.55 0 0 1 -2.78,1 2.65,2.65 0 0 1 -2.86,-2.34 h 7.1 c 0,-0.26 0,-0.52 0,-0.8 0,-3 -1.86,-5 -4.54,-5 z m 0,1.86 a 2.37,2.37 0 0 1 2.42,2.32 h -5 a 2.46,2.46 0 0 1 2.54,-2.32 z m 52.11,3.16 v -8.62 h -2 v 5 a 3.63,3.63 0 0 0 -3,-1.4 5,5 0 0 0 0,10 3.63,3.63 0 0 0 3,-1.4 v 1.16 h 2 z m 3.47,3.39 a 1,1 0 0 1 0.38,0.07 1,1 0 0 1 0.31,0.2 1,1 0 0 1 0.21,0.3 0.93,0.93 0 0 1 0,0.74 1,1 0 0 1 -0.21,0.3 1,1 0 0 1 -0.31,0.2 0.94,0.94 0 0 1 -0.38,0.08 1,1 0 0 1 -0.9,-0.58 0.94,0.94 0 0 1 0,-0.74 1,1 0 0 1 0.21,-0.3 1,1 0 0 1 0.31,-0.2 1,1 0 0 1 0.41,-0.07 z m 0,1.69 a 0.71,0.71 0 0 0 0.29,-0.06 0.75,0.75 0 0 0 0.23,-0.16 0.74,0.74 0 0 0 0,-1 0.74,0.74 0 0 0 -0.23,-0.16 0.72,0.72 0 0 0 -0.29,-0.06 0.75,0.75 0 0 0 -0.29,0.06 0.73,0.73 0 0 0 -0.24,0.16 0.74,0.74 0 0 0 0,1 0.74,0.74 0 0 0 0.24,0.16 0.74,0.74 0 0 0 0.32,0.06 z m 0.06,-1.19 a 0.4,0.4 0 0 1 0.26,0.08 0.25,0.25 0 0 1 0.09,0.21 0.24,0.24 0 0 1 -0.07,0.18 0.35,0.35 0 0 1 -0.21,0.09 l 0.29,0.33 h -0.23 l -0.27,-0.33 h -0.09 v 0.33 h -0.19 v -0.88 z m -0.22,0.17 v 0.24 h 0.22 a 0.21,0.21 0 0 0 0.12,0 0.1,0.1 0 0 0 0,-0.09 0.1,0.1 0 0 0 0,-0.09 0.21,0.21 0 0 0 -0.12,0 z m -11,-4.06 a 2.89,2.89 0 1 1 2.9,3.06 2.87,2.87 0 0 1 -2.9,-3.06 z m -70.23,0 V 95.7 H 46 v 1.16 a 3.63,3.63 0 0 0 -3,-1.4 5,5 0 0 0 0,10 3.63,3.63 0 0 0 3,-1.4 v 1.16 h 2.08 z m -7.74,0 a 2.89,2.89 0 1 1 2.9,3.06 2.87,2.87 0 0 1 -2.92,-3.06 z"
         id="path10"
         inkscape:connector-curvature="0"
         style="fill:#231f20" />
      <g
         id="_Group_"
         data-name="&lt;Group&gt;">
        <rect
           class="cls-3"
           x="57.650002"
           y="22.85"
           width="31.5"
           height="56.610001"
           id="rect12"
           style="fill:#ff5f00" />
        <path
           id="_Path_"
           data-name="&lt;Path&gt;"
           class="cls-4"
           d="M 59.65,51.16 A 35.94,35.94 0 0 1 73.4,22.85 36,36 0 1 0 73.4,79.46 35.94,35.94 0 0 1 59.65,51.16 Z"
           inkscape:connector-curvature="0"
           style="fill:#eb001b" />
        <path
           class="cls-5"
           d="m 131.65,51.16 a 36,36 0 0 1 -58.25,28.3 36,36 0 0 0 0,-56.61 36,36 0 0 1 58.25,28.3 z"
           id="path15"
           inkscape:connector-curvature="0"
           style="fill:#f79e1b" />
        <path
           class="cls-5"
           d="M 128.21,73.46 V 72.3 h 0.47 v -0.24 h -1.19 V 72.3 H 128 v 1.16 z m 2.31,0 v -1.4 h -0.36 l -0.42,1 -0.42,-1 H 129 v 1.4 h 0.26 v -1.05 l 0.39,0.91 h 0.27 l 0.39,-0.91 v 1.06 z"
           id="path17"
           inkscape:connector-curvature="0"
           style="fill:#f79e1b" />
      </g>
    </g>
  </g>
  <g
     id="Layer_2-2"
     data-name="Layer 2"
     transform="translate(230.95467)">
    <g
       id="Layer_1-2-7"
       data-name="Layer 1">
      <rect
         y="0"
         x="0"
         class="cls-1"
         width="478.98999"
         height="109.97"
         id="rect8-7"
         style="fill:none" />
      <path
         inkscape:connector-curvature="0"
         class="cls-2"
         d="m 216.39,67.11 v -15 c 0,-5.66 -3.61,-9.47 -9.42,-9.52 a 9.27,9.27 0 0 0 -8.41,4.26 8.79,8.79 0 0 0 -7.91,-4.26 7.92,7.92 0 0 0 -7,3.56 v -3 h -5.21 v 23.96 h 5.26 V 53.84 c 0,-4.16 2.3,-6.36 5.86,-6.36 3.56,0 5.21,2.25 5.21,6.31 V 67.11 H 200 V 53.84 c 0,-4.16 2.4,-6.36 5.86,-6.36 3.46,0 5.26,2.25 5.26,6.31 v 13.32 z m 77.83,-23.94 h -8.51 v -7.26 h -5.26 v 7.26 h -4.86 v 4.76 h 4.86 v 10.91 c 0,5.56 2.15,8.87 8.31,8.87 a 12.24,12.24 0 0 0 6.51,-1.85 l -1.5,-4.46 a 9.62,9.62 0 0 1 -4.61,1.35 c -2.6,0 -3.46,-1.6 -3.46,-4 V 47.93 h 8.51 z m 44.43,-0.6 a 7.06,7.06 0 0 0 -6.31,3.51 v -2.91 h -5.16 v 23.94 h 5.21 V 53.69 c 0,-4 1.7,-6.16 5.11,-6.16 a 8.49,8.49 0 0 1 3.26,0.6 l 1.6,-4.91 a 11.13,11.13 0 0 0 -3.71,-0.65 z m -67.17,2.5 a 17.9,17.9 0 0 0 -9.77,-2.5 c -6.06,0 -10,2.91 -10,7.66 0,3.91 2.9,6.31 8.26,7.06 l 2.45,0.35 c 2.85,0.4 4.21,1.15 4.21,2.5 0,1.85 -1.9,2.91 -5.46,2.91 a 12.76,12.76 0 0 1 -8,-2.5 l -2.37,4.05 a 17.27,17.27 0 0 0 10.37,3.11 c 6.91,0 10.92,-3.26 10.92,-7.81 0,-4.21 -3.16,-6.41 -8.36,-7.16 l -2.45,-0.35 c -2.25,-0.3 -4.06,-0.75 -4.06,-2.35 0,-1.75 1.7,-2.8 4.56,-2.8 a 15.43,15.43 0 0 1 7.46,2.05 z M 411,42.57 a 7.06,7.06 0 0 0 -6.31,3.51 v -2.91 h -5.16 v 23.94 h 5.21 V 53.69 c 0,-4 1.7,-6.16 5.11,-6.16 a 8.49,8.49 0 0 1 3.26,0.6 l 1.6,-4.91 A 11.13,11.13 0 0 0 411,42.57 Z m -67.09,12.57 c 0,7.26 5.06,12.57 12.77,12.57 a 12.54,12.54 0 0 0 8.61,-2.86 l -2.5,-4.21 a 10.52,10.52 0 0 1 -6.26,2.15 c -4.16,0 -7.21,-3.06 -7.21,-7.66 0,-4.6 3.06,-7.61 7.21,-7.66 a 10.52,10.52 0 0 1 6.26,2.15 l 2.5,-4.21 a 12.54,12.54 0 0 0 -8.61,-2.86 c -7.71,0 -12.77,5.31 -12.77,12.57 z m 48.78,0 v -12 h -5.21 v 2.91 a 9.08,9.08 0 0 0 -7.56,-3.51 c -6.71,0 -12,5.26 -12,12.57 0,7.31 5.26,12.57 12,12.57 a 9.08,9.08 0 0 0 7.56,-3.51 v 2.9 h 5.21 z m -19.38,0 c 0,-4.21 2.75,-7.66 7.26,-7.66 4.31,0 7.21,3.31 7.21,7.66 0,4.35 -2.9,7.66 -7.21,7.66 -4.51,0 -7.26,-3.46 -7.26,-7.66 z M 310.45,42.57 c -7,0 -11.92,5.11 -11.92,12.57 0,7.61 5.11,12.57 12.27,12.57 a 14.55,14.55 0 0 0 9.82,-3.36 l -2.55,-3.86 a 11.41,11.41 0 0 1 -7,2.5 c -3.36,0 -6.41,-1.55 -7.16,-5.86 h 17.78 c 0.05,-0.65 0.1,-1.3 0.1,-2 0,-7.46 -4.66,-12.57 -11.37,-12.57 z m -0.1,4.66 c 3.36,0 5.51,2.1 6.06,5.81 H 304 c 0.55,-3.46 2.65,-5.81 6.36,-5.81 z M 441,55.14 V 33.55 h -5.21 v 12.52 a 9.08,9.08 0 0 0 -7.56,-3.51 c -6.71,0 -12,5.26 -12,12.57 0,7.31 5.26,12.57 12,12.57 a 9.08,9.08 0 0 0 7.56,-3.51 v 2.9 H 441 Z m 6.09,9.76 a 1.53,1.53 0 0 1 0.6,0.12 1.57,1.57 0 0 1 0.49,0.33 1.53,1.53 0 0 1 0.33,0.48 1.49,1.49 0 0 1 0,1.18 1.54,1.54 0 0 1 -0.33,0.48 1.6,1.6 0 0 1 -0.49,0.33 1.5,1.5 0 0 1 -0.6,0.12 1.55,1.55 0 0 1 -1.44,-0.93 1.5,1.5 0 0 1 0,-1.18 1.52,1.52 0 0 1 0.82,-0.81 1.57,1.57 0 0 1 0.64,-0.12 z m 0,2.7 a 1.13,1.13 0 0 0 0.46,-0.09 1.21,1.21 0 0 0 0.37,-0.25 1.19,1.19 0 0 0 0,-1.68 1.18,1.18 0 0 0 -0.37,-0.25 1.15,1.15 0 0 0 -0.46,-0.09 1.19,1.19 0 0 0 -0.47,0.09 1.19,1.19 0 0 0 -0.38,1.93 1.19,1.19 0 0 0 0.38,0.25 1.18,1.18 0 0 0 0.49,0.09 z m 0.09,-1.9 a 0.64,0.64 0 0 1 0.42,0.12 0.4,0.4 0 0 1 0.15,0.33 0.38,0.38 0 0 1 -0.12,0.29 0.56,0.56 0 0 1 -0.33,0.14 l 0.46,0.53 h -0.36 l -0.43,-0.53 h -0.14 v 0.53 h -0.3 v -1.4 z m -0.35,0.26 v 0.38 h 0.35 a 0.34,0.34 0 0 0 0.19,0 0.16,0.16 0 0 0 0.07,-0.14 0.16,0.16 0 0 0 -0.07,-0.14 0.34,0.34 0 0 0 -0.19,0 z M 421.64,55.14 c 0,-4.21 2.75,-7.66 7.26,-7.66 4.31,0 7.21,3.31 7.21,7.66 0,4.35 -2.9,7.66 -7.21,7.66 -4.51,0 -7.26,-3.46 -7.26,-7.66 z m -175.9,0 v -12 h -5.21 v 2.91 A 9.08,9.08 0 0 0 233,42.57 c -6.71,0 -12,5.26 -12,12.57 0,7.31 5.26,12.57 12,12.57 a 9.08,9.08 0 0 0 7.56,-3.51 v 2.9 h 5.21 z m -19.38,0 c 0,-4.21 2.75,-7.66 7.26,-7.66 4.31,0 7.21,3.31 7.21,7.66 0,4.35 -2.9,7.66 -7.21,7.66 -4.51,0 -7.26,-3.45 -7.26,-7.66 z"
         id="path10-0"
         style="fill:#231f20" />
      <g
         id="_Group_-5"
         data-name="&lt;Group&gt;">
        <rect
           class="cls-3"
           x="80.459999"
           y="26.68"
           width="31.5"
           height="56.610001"
           id="rect12-2"
           style="fill:#ff5f00" />
        <path
           inkscape:connector-curvature="0"
           id="_Path_-2"
           data-name="&lt;Path&gt;"
           class="cls-4"
           d="m 82.46,55 a 35.94,35.94 0 0 1 13.75,-28.3 36,36 0 1 0 0,56.61 A 35.94,35.94 0 0 1 82.46,55 Z"
           style="fill:#eb001b" />
        <path
           inkscape:connector-curvature="0"
           class="cls-5"
           d="M 154.46,55 A 36,36 0 0 1 96.21,83.3 36,36 0 0 0 96.21,26.69 36,36 0 0 1 154.46,55 Z"
           id="path15-2"
           style="fill:#f79e1b" />
        <path
           inkscape:connector-curvature="0"
           class="cls-5"
           d="m 151,77.29 v -1.16 h 0.47 V 75.9 h -1.17 v 0.24 h 0.47 v 1.16 z m 2.31,0 v -1.4 H 153 l -0.42,1 -0.42,-1 h -0.37 v 1.4 H 152 v -1.05 l 0.39,0.91 h 0.27 l 0.39,-0.91 v 1.06 z"
           id="path17-9"
           style="fill:#f79e1b" />
      </g>
    </g>
  </g>
</svg>
